<?xml version="1.0" standalone="no"?>
<!DOCTYPE svg PUBLIC "-//W3C//DTD SVG 20010904//EN"
 "http://www.w3.org/TR/2001/REC-SVG-20010904/DTD/svg10.dtd">
<svg version="1.0" xmlns="http://www.w3.org/2000/svg"
 width="239.000000pt" height="84.000000pt" viewBox="0 0 239.000000 84.000000"
 preserveAspectRatio="xMidYMid meet">

<g transform="translate(0.000000,84.000000) scale(0.100000,-0.100000)"
fill="#000000" stroke="none">
<path d="M2370 420 c0 -273 3 -420 10 -420 7 0 10 147 10 420 0 273 -3 420
-10 420 -7 0 -10 -147 -10 -420z"/>
<path d="M890 693 c-29 -15 -36 -24 -38 -54 -3 -42 15 -66 56 -75 56 -12 73
-23 70 -47 -4 -27 -45 -35 -90 -16 -23 9 -32 9 -41 0 -20 -20 30 -51 84 -51
113 0 132 124 22 145 -65 12 -84 46 -39 66 19 9 31 8 56 -5 34 -17 50 -14 50
9 0 34 -82 52 -130 28z"/>
<path d="M1634 699 c-98 -28 -115 -187 -24 -234 87 -45 180 13 180 112 0 86
-75 145 -156 122z m76 -49 c23 -12 43 -70 34 -96 -28 -77 -114 -86 -144 -15
-32 78 38 149 110 111z"/>
<path d="M1915 703 c-38 -10 -64 -35 -81 -79 -21 -56 -8 -110 37 -148 65 -55
165 -21 190 64 10 33 9 47 -5 84 -23 61 -82 94 -141 79z m84 -69 c29 -37 27
-89 -4 -119 -71 -72 -168 38 -104 119 15 19 30 26 54 26 24 0 39 -7 54 -26z"/>
<path d="M1118 684 c-78 -42 -76 -178 2 -219 36 -19 100 -19 125 -2 29 22 10
37 -39 31 -54 -8 -81 6 -96 50 -9 27 -8 42 4 70 17 40 46 52 100 42 38 -7 55
6 36 29 -16 20 -96 19 -132 -1z"/>
<path d="M1302 578 c3 -101 6 -123 18 -123 11 0 16 14 20 50 l5 50 57 3 57 3
3 -53 c2 -39 7 -53 18 -53 12 0 15 22 18 123 2 114 1 123 -15 120 -14 -2 -19
-15 -21 -51 l-3 -47 -60 0 -59 0 0 50 c0 44 -3 50 -20 50 -20 0 -20 -5 -18
-122z"/>
<path d="M2114 687 c-2 -7 -3 -62 -2 -123 l3 -109 75 0 c62 0 75 3 78 17 3 14
-6 17 -55 20 l-58 3 -3 103 c-2 83 -6 102 -18 102 -8 0 -17 -6 -20 -13z"/>
<path d="M911 392 c-121 -65 -73 -242 66 -242 28 0 58 7 71 16 20 14 23 23 20
67 l-3 52 -50 0 c-38 0 -50 -4 -50 -15 0 -9 11 -16 28 -18 23 -3 27 -8 27 -33
0 -27 -3 -29 -37 -29 -86 1 -123 91 -63 152 28 28 34 29 80 23 42 -6 50 -4 50
9 0 37 -83 48 -139 18z"/>
<path d="M1121 396 c-8 -9 -11 -51 -9 -127 l3 -114 83 -3 c76 -3 83 -1 80 15
-3 14 -15 19 -61 21 l-57 3 0 34 0 35 50 0 c43 0 50 3 50 20 0 17 -7 20 -50
20 l-50 0 0 35 0 35 61 0 c52 0 60 2 57 18 -3 14 -16 18 -74 20 -52 2 -74 -1
-83 -12z"/>
<path d="M1346 389 c-19 -15 -26 -30 -26 -53 0 -41 21 -60 85 -78 34 -9 51
-20 53 -32 7 -34 -51 -48 -103 -24 -38 17 -54 -3 -24 -31 17 -16 36 -21 74
-21 63 0 95 25 95 74 0 40 -22 62 -72 71 -53 10 -76 29 -62 52 11 17 35 20
103 11 35 -5 37 18 2 36 -42 22 -93 20 -125 -5z"/>
<path d="M1535 400 c-11 -18 5 -30 40 -30 l34 0 3 -107 c3 -100 4 -108 23
-108 18 0 20 8 25 105 l5 105 38 3 c30 3 37 7 35 20 -3 14 -19 17 -100 20 -59
2 -99 -1 -103 -8z"/>
<path d="M1819 387 c-69 -46 -76 -142 -14 -204 28 -28 40 -33 82 -33 78 0 123
47 123 130 0 106 -105 165 -191 107z m117 -40 c56 -49 23 -157 -48 -157 -39 0
-78 40 -78 79 0 84 69 127 126 78z"/>
<path d="M2065 398 c-3 -8 -4 -66 -3 -128 3 -100 5 -115 21 -118 14 -3 17 4
17 43 l0 46 53 -3 c50 -3 52 -4 55 -33 5 -37 19 -55 43 -55 20 0 26 24 9 35
-5 3 -10 16 -10 29 0 12 -5 27 -11 33 -8 8 -7 17 5 34 21 31 20 72 -3 100 -16
20 -30 24 -95 27 -59 3 -77 1 -81 -10z m138 -49 c5 -9 7 -28 3 -42 -6 -25 -11
-27 -56 -27 l-50 0 0 38 c0 21 3 42 7 46 13 13 86 2 96 -15z"/>
</g>
</svg>
